<svg width="24" height="24" viewBox="0 0 24 24" fill="none" xmlns="http://www.w3.org/2000/svg">
<path d="M21.73 18L13.73 4C13.5556 3.6922 13.3026 3.43618 12.9969 3.25806C12.6912 3.07995 12.3438 2.9861 11.99 2.9861C11.6362 2.9861 11.2888 3.07995 10.9831 3.25806C10.6774 3.43618 10.4244 3.6922 10.25 4L2.25 18C2.07368 18.3054 1.98123 18.6519 1.98201 19.0045C1.98279 19.3571 2.07678 19.7032 2.25445 20.0078C2.43211 20.3124 2.68715 20.5646 2.9937 20.7388C3.30024 20.9131 3.64741 21.0032 4 21H20C20.3509 20.9996 20.6955 20.907 20.9993 20.7313C21.303 20.5556 21.5552 20.3031 21.7305 19.9991C21.9058 19.6951 21.998 19.3504 21.9979 18.9995C21.9979 18.6486 21.9054 18.3039 21.73 18Z" stroke="white" stroke-width="2" stroke-linecap="round" stroke-linejoin="round"/>
<path d="M12 9V13" stroke="white" stroke-width="2" stroke-linecap="round" stroke-linejoin="round"/>
<path d="M12 17H12.01" stroke="white" stroke-width="2" stroke-linecap="round" stroke-linejoin="round"/>
</svg>
